<svg xmlns="http://www.w3.org/2000/svg" width="448" height="486" viewBox="0 0 448 486">
<defs><clipPath id="glass"><rect width="448" height="486"/></clipPath></defs>
<rect width="448" height="486" fill="#000"/>
<g clip-path="url(#glass)">
<circle cx="118.6" cy="28.1" r="24" fill="#00AAFF"/>
<polyline points="108.0,34.4 118.6,21.9 129.1,34.4" stroke="#000" stroke-width="8.0" stroke-linecap="round" stroke-linejoin="round" fill="none"/>
<text x="146.6" y="46" font-family="Roboto, Helvetica Neue, Helvetica, Arial, sans-serif" font-size="52.0" fill="#FFF">RECOVER</text>
<text x="224" y="137" font-family="Roboto, Helvetica Neue, Helvetica, Arial, sans-serif" font-size="86.6" fill="#00AAFF" text-anchor="middle">46.9</text>
<text x="224" y="407" font-family="Roboto, Helvetica Neue, Helvetica, Arial, sans-serif" font-size="60.2" fill="#00AAFF" text-anchor="middle">+0.101%/s</text>
<text x="77" y="440" font-family="Roboto, Helvetica Neue, Helvetica, Arial, sans-serif" font-size="31.5" fill="#AAA" text-anchor="middle">MIN</text>
<text x="77" y="482" font-family="Roboto, Helvetica Neue, Helvetica, Arial, sans-serif" font-size="45.2" fill="#FFF" text-anchor="middle">41</text>
<text x="224" y="440" font-family="Roboto, Helvetica Neue, Helvetica, Arial, sans-serif" font-size="31.5" fill="#AAA" text-anchor="middle">MAX</text>
<text x="224" y="482" font-family="Roboto, Helvetica Neue, Helvetica, Arial, sans-serif" font-size="45.2" fill="#FFF" text-anchor="middle">71</text>
<text x="371" y="440" font-family="Roboto, Helvetica Neue, Helvetica, Arial, sans-serif" font-size="31.5" fill="#AAA" text-anchor="middle">PACE</text>
<text x="371" y="482" font-family="Roboto, Helvetica Neue, Helvetica, Arial, sans-serif" font-size="45.2" fill="#FFF" text-anchor="middle">4:10</text>
<line x1="4" y1="144.6" x2="444" y2="144.6" stroke="#555" stroke-width="1"/>
<line x1="4" y1="343.0" x2="444" y2="343.0" stroke="#555" stroke-width="1"/>
<line x1="4" y1="243.8" x2="444" y2="243.8" stroke="#555" stroke-width="1"/>
<polygon shape-rendering="crispEdges" points="4.0,164.4 8.9,173.1 8.9,343.0 4.0,343.0" fill="#562E00"/>
<polygon shape-rendering="crispEdges" points="8.9,173.1 13.9,179.8 13.9,343.0 8.9,343.0" fill="#562E00"/>
<polygon shape-rendering="crispEdges" points="13.9,179.8 18.8,188.7 18.8,343.0 13.9,343.0" fill="#562E00"/>
<polygon shape-rendering="crispEdges" points="18.8,188.7 23.8,195.4 23.8,343.0 18.8,343.0" fill="#562E00"/>
<polygon shape-rendering="crispEdges" points="23.8,195.4 28.7,205.6 28.7,343.0 23.8,343.0" fill="#562E00"/>
<polygon shape-rendering="crispEdges" points="28.7,205.6 33.7,213.2 33.7,343.0 28.7,343.0" fill="#562E00"/>
<polygon shape-rendering="crispEdges" points="33.7,213.2 38.6,223.1 38.6,343.0 33.7,343.0" fill="#562E00"/>
<polygon shape-rendering="crispEdges" points="38.6,223.1 43.6,230.5 43.6,343.0 38.6,343.0" fill="#562E00"/>
<polygon shape-rendering="crispEdges" points="43.6,230.5 48.5,238.4 48.5,343.0 43.6,343.0" fill="#562E00"/>
<polygon shape-rendering="crispEdges" points="48.5,238.4 53.4,244.1 53.4,343.0 48.5,343.0" fill="#562E00"/>
<polygon shape-rendering="crispEdges" points="53.4,244.1 58.4,250.6 58.4,343.0 53.4,343.0" fill="#562E00"/>
<polygon shape-rendering="crispEdges" points="58.4,250.6 63.3,255.1 63.3,343.0 58.4,343.0" fill="#562E00"/>
<polygon shape-rendering="crispEdges" points="63.3,255.1 68.3,259.7 68.3,343.0 63.3,343.0" fill="#562E00"/>
<polygon shape-rendering="crispEdges" points="68.3,259.7 73.2,262.6 73.2,343.0 68.3,343.0" fill="#562E00"/>
<polygon shape-rendering="crispEdges" points="73.2,262.6 78.2,266.1 78.2,343.0 73.2,343.0" fill="#562E00"/>
<polygon shape-rendering="crispEdges" points="78.2,266.1 83.1,268.3 83.1,343.0 78.2,343.0" fill="#562E00"/>
<polygon shape-rendering="crispEdges" points="83.1,268.3 88.0,269.5 88.0,343.0 83.1,343.0" fill="#562E00"/>
<polygon shape-rendering="crispEdges" points="88.0,269.5 93.0,269.9 93.0,343.0 88.0,343.0" fill="#562E00"/>
<polygon shape-rendering="crispEdges" points="93.0,269.9 97.9,273.2 97.9,343.0 93.0,343.0" fill="#562E00"/>
<polygon shape-rendering="crispEdges" points="97.9,273.2 102.9,275.4 102.9,343.0 97.9,343.0" fill="#562E00"/>
<polygon shape-rendering="crispEdges" points="102.9,275.4 107.8,277.8 107.8,343.0 102.9,343.0" fill="#562E00"/>
<polygon shape-rendering="crispEdges" points="107.8,277.8 112.8,279.4 112.8,343.0 107.8,343.0" fill="#562E00"/>
<polygon shape-rendering="crispEdges" points="112.8,279.4 117.7,282.9 117.7,343.0 112.8,343.0" fill="#562E00"/>
<polygon shape-rendering="crispEdges" points="117.7,282.9 122.7,285.4 122.7,343.0 117.7,343.0" fill="#562E00"/>
<polygon shape-rendering="crispEdges" points="122.7,285.4 127.6,287.2 127.6,343.0 122.7,343.0" fill="#562E00"/>
<polygon shape-rendering="crispEdges" points="127.6,287.2 132.5,288.4 132.5,343.0 127.6,343.0" fill="#562E00"/>
<polygon shape-rendering="crispEdges" points="132.5,288.4 137.5,290.9 137.5,343.0 132.5,343.0" fill="#562E00"/>
<polygon shape-rendering="crispEdges" points="137.5,290.9 142.4,292.6 142.4,343.0 137.5,343.0" fill="#562E00"/>
<polygon shape-rendering="crispEdges" points="142.4,292.6 147.4,293.4 147.4,343.0 142.4,343.0" fill="#562E00"/>
<polygon shape-rendering="crispEdges" points="147.4,293.4 152.3,293.9 152.3,343.0 147.4,343.0" fill="#562E00"/>
<polygon shape-rendering="crispEdges" points="152.3,293.9 157.3,296.2 157.3,343.0 152.3,343.0" fill="#561410"/>
<polygon shape-rendering="crispEdges" points="157.3,296.2 162.2,297.9 162.2,343.0 157.3,343.0" fill="#561410"/>
<polygon shape-rendering="crispEdges" points="162.2,297.9 167.1,299.6 167.1,343.0 162.2,343.0" fill="#561410"/>
<polygon shape-rendering="crispEdges" points="167.1,299.6 172.1,300.8 172.1,343.0 167.1,343.0" fill="#561410"/>
<polygon shape-rendering="crispEdges" points="172.1,300.8 177.0,303.9 177.0,343.0 172.1,343.0" fill="#561410"/>
<polygon shape-rendering="crispEdges" points="177.0,303.9 182.0,306.2 182.0,343.0 177.0,343.0" fill="#561410"/>
<polygon shape-rendering="crispEdges" points="182.0,306.2 186.9,308.7 186.9,343.0 182.0,343.0" fill="#561410"/>
<polygon shape-rendering="crispEdges" points="186.9,308.7 191.9,310.5 191.9,343.0 186.9,343.0" fill="#561410"/>
<polygon shape-rendering="crispEdges" points="191.9,310.5 196.8,312.2 196.8,343.0 191.9,343.0" fill="#561410"/>
<polygon shape-rendering="crispEdges" points="196.8,312.2 201.8,313.5 201.8,343.0 196.8,343.0" fill="#561410"/>
<polygon shape-rendering="crispEdges" points="201.8,313.5 206.7,314.8 206.7,343.0 201.8,343.0" fill="#564800"/>
<polygon shape-rendering="crispEdges" points="206.7,314.8 211.6,315.7 211.6,343.0 206.7,343.0" fill="#564800"/>
<polygon shape-rendering="crispEdges" points="211.6,315.7 216.6,316.3 216.6,343.0 211.6,343.0" fill="#564800"/>
<polygon shape-rendering="crispEdges" points="216.6,316.3 221.5,316.5 221.5,343.0 216.6,343.0" fill="#564800"/>
<polygon shape-rendering="crispEdges" points="221.5,316.5 226.5,314.6 226.5,343.0 221.5,343.0" fill="#564800"/>
<polygon shape-rendering="crispEdges" points="226.5,314.6 231.4,312.9 231.4,343.0 226.5,343.0" fill="#564800"/>
<polygon shape-rendering="crispEdges" points="231.4,312.9 236.4,311.2 236.4,343.0 231.4,343.0" fill="#564800"/>
<polygon shape-rendering="crispEdges" points="236.4,311.2 241.3,309.9 241.3,343.0 236.4,343.0" fill="#564800"/>
<polygon shape-rendering="crispEdges" points="241.3,309.9 246.2,309.9 246.2,343.0 241.3,343.0" fill="#564800"/>
<polygon shape-rendering="crispEdges" points="246.2,309.9 251.2,310.0 251.2,343.0 246.2,343.0" fill="#00441C"/>
<polygon shape-rendering="crispEdges" points="251.2,310.0 256.1,310.2 256.1,343.0 251.2,343.0" fill="#00441C"/>
<polygon shape-rendering="crispEdges" points="256.1,310.2 261.1,310.5 261.1,343.0 256.1,343.0" fill="#00441C"/>
<polygon shape-rendering="crispEdges" points="261.1,310.5 266.0,310.8 266.0,343.0 261.1,343.0" fill="#00441C"/>
<polygon shape-rendering="crispEdges" points="266.0,310.8 271.0,311.1 271.0,343.0 266.0,343.0" fill="#00441C"/>
<polygon shape-rendering="crispEdges" points="271.0,311.1 275.9,312.9 275.9,343.0 271.0,343.0" fill="#00441C"/>
<polygon shape-rendering="crispEdges" points="275.9,312.9 280.9,314.4 280.9,343.0 275.9,343.0" fill="#00441C"/>
<polygon shape-rendering="crispEdges" points="280.9,314.4 285.8,316.5 285.8,343.0 280.9,343.0" fill="#00441C"/>
<polygon shape-rendering="crispEdges" points="285.8,316.5 290.7,318.1 290.7,343.0 285.8,343.0" fill="#00441C"/>
<polygon shape-rendering="crispEdges" points="290.7,318.1 295.7,319.6 295.7,343.0 290.7,343.0" fill="#00441C"/>
<polygon shape-rendering="crispEdges" points="295.7,319.6 300.6,320.7 300.6,343.0 295.7,343.0" fill="#00441C"/>
<polygon shape-rendering="crispEdges" points="300.6,320.7 305.6,321.8 305.6,343.0 300.6,343.0" fill="#00441C"/>
<polygon shape-rendering="crispEdges" points="305.6,321.8 310.5,322.6 310.5,343.0 305.6,343.0" fill="#00441C"/>
<polygon shape-rendering="crispEdges" points="310.5,322.6 315.5,323.0 315.5,343.0 310.5,343.0" fill="#00441C"/>
<polygon shape-rendering="crispEdges" points="315.5,323.0 320.4,323.2 320.4,343.0 315.5,343.0" fill="#00441C"/>
<polygon shape-rendering="crispEdges" points="320.4,323.2 325.3,321.3 325.3,343.0 320.4,343.0" fill="#00441C"/>
<polygon shape-rendering="crispEdges" points="325.3,321.3 330.3,319.6 330.3,343.0 325.3,343.0" fill="#00441C"/>
<polygon shape-rendering="crispEdges" points="330.3,319.6 335.2,316.9 335.2,343.0 330.3,343.0" fill="#00441C"/>
<polygon shape-rendering="crispEdges" points="335.2,316.9 340.2,314.7 340.2,343.0 335.2,343.0" fill="#00441C"/>
<polygon shape-rendering="crispEdges" points="340.2,314.7 345.1,311.3 345.1,343.0 340.2,343.0" fill="#003956"/>
<polygon shape-rendering="crispEdges" points="345.1,311.3 350.1,308.7 350.1,343.0 345.1,343.0" fill="#003956"/>
<polygon shape-rendering="crispEdges" points="350.1,308.7 355.0,304.9 355.0,343.0 350.1,343.0" fill="#003956"/>
<polygon shape-rendering="crispEdges" points="355.0,304.9 360.0,302.0 360.0,343.0 355.0,343.0" fill="#003956"/>
<polygon shape-rendering="crispEdges" points="360.0,302.0 364.9,299.8 364.9,343.0 360.0,343.0" fill="#003956"/>
<polygon shape-rendering="crispEdges" points="364.9,299.8 369.8,298.3 369.8,343.0 364.9,343.0" fill="#003956"/>
<polygon shape-rendering="crispEdges" points="369.8,298.3 374.8,298.8 374.8,343.0 369.8,343.0" fill="#003956"/>
<polygon shape-rendering="crispEdges" points="374.8,298.8 379.7,299.4 379.7,343.0 374.8,343.0" fill="#003956"/>
<polygon shape-rendering="crispEdges" points="379.7,299.4 384.7,299.9 384.7,343.0 379.7,343.0" fill="#003956"/>
<polygon shape-rendering="crispEdges" points="384.7,299.9 389.6,300.4 389.6,343.0 384.7,343.0" fill="#00441C"/>
<polygon shape-rendering="crispEdges" points="389.6,300.4 394.6,300.9 394.6,343.0 389.6,343.0" fill="#00441C"/>
<polygon shape-rendering="crispEdges" points="394.6,300.9 399.5,301.4 399.5,343.0 394.6,343.0" fill="#00441C"/>
<polygon shape-rendering="crispEdges" points="399.5,301.4 404.4,302.4 404.4,343.0 399.5,343.0" fill="#564800"/>
<polygon shape-rendering="crispEdges" points="404.4,302.4 409.4,303.2 409.4,343.0 404.4,343.0" fill="#564800"/>
<polygon shape-rendering="crispEdges" points="409.4,303.2 414.3,303.4 414.3,343.0 409.4,343.0" fill="#564800"/>
<polygon shape-rendering="crispEdges" points="414.3,303.4 419.3,303.5 419.3,343.0 414.3,343.0" fill="#564800"/>
<polygon shape-rendering="crispEdges" points="419.3,303.5 424.2,303.4 424.2,343.0 419.3,343.0" fill="#00441C"/>
<polygon shape-rendering="crispEdges" points="424.2,303.4 429.2,303.3 429.2,343.0 424.2,343.0" fill="#564800"/>
<polygon shape-rendering="crispEdges" points="429.2,303.3 434.1,304.2 434.1,343.0 429.2,343.0" fill="#1C1C1C"/>
<polygon shape-rendering="crispEdges" points="434.1,304.2 439.1,304.9 439.1,343.0 434.1,343.0" fill="#1C1C1C"/>
<polygon shape-rendering="crispEdges" points="439.1,304.9 444.0,306.5 444.0,343.0 439.1,343.0" fill="#1C1C1C"/>
<line x1="4.0" y1="164.4" x2="8.9" y2="173.1" stroke="#FF8A00" stroke-width="3" stroke-linecap="round"/>
<line x1="8.9" y1="173.1" x2="13.9" y2="179.8" stroke="#FF8A00" stroke-width="3" stroke-linecap="round"/>
<line x1="13.9" y1="179.8" x2="18.8" y2="188.7" stroke="#FF8A00" stroke-width="3" stroke-linecap="round"/>
<line x1="18.8" y1="188.7" x2="23.8" y2="195.4" stroke="#FF8A00" stroke-width="3" stroke-linecap="round"/>
<line x1="23.8" y1="195.4" x2="28.7" y2="205.6" stroke="#FF8A00" stroke-width="3" stroke-linecap="round"/>
<line x1="28.7" y1="205.6" x2="33.7" y2="213.2" stroke="#FF8A00" stroke-width="3" stroke-linecap="round"/>
<line x1="33.7" y1="213.2" x2="38.6" y2="223.1" stroke="#FF8A00" stroke-width="3" stroke-linecap="round"/>
<line x1="38.6" y1="223.1" x2="43.6" y2="230.5" stroke="#FF8A00" stroke-width="3" stroke-linecap="round"/>
<line x1="43.6" y1="230.5" x2="48.5" y2="238.4" stroke="#FF8A00" stroke-width="3" stroke-linecap="round"/>
<line x1="48.5" y1="238.4" x2="53.4" y2="244.1" stroke="#FF8A00" stroke-width="3" stroke-linecap="round"/>
<line x1="53.4" y1="244.1" x2="58.4" y2="250.6" stroke="#FF8A00" stroke-width="3" stroke-linecap="round"/>
<line x1="58.4" y1="250.6" x2="63.3" y2="255.1" stroke="#FF8A00" stroke-width="3" stroke-linecap="round"/>
<line x1="63.3" y1="255.1" x2="68.3" y2="259.7" stroke="#FF8A00" stroke-width="3" stroke-linecap="round"/>
<line x1="68.3" y1="259.7" x2="73.2" y2="262.6" stroke="#FF8A00" stroke-width="3" stroke-linecap="round"/>
<line x1="73.2" y1="262.6" x2="78.2" y2="266.1" stroke="#FF8A00" stroke-width="3" stroke-linecap="round"/>
<line x1="78.2" y1="266.1" x2="83.1" y2="268.3" stroke="#FF8A00" stroke-width="3" stroke-linecap="round"/>
<line x1="83.1" y1="268.3" x2="88.0" y2="269.5" stroke="#FF8A00" stroke-width="3" stroke-linecap="round"/>
<line x1="88.0" y1="269.5" x2="93.0" y2="269.9" stroke="#FF8A00" stroke-width="3" stroke-linecap="round"/>
<line x1="93.0" y1="269.9" x2="97.9" y2="273.2" stroke="#FF8A00" stroke-width="3" stroke-linecap="round"/>
<line x1="97.9" y1="273.2" x2="102.9" y2="275.4" stroke="#FF8A00" stroke-width="3" stroke-linecap="round"/>
<line x1="102.9" y1="275.4" x2="107.8" y2="277.8" stroke="#FF8A00" stroke-width="3" stroke-linecap="round"/>
<line x1="107.8" y1="277.8" x2="112.8" y2="279.4" stroke="#FF8A00" stroke-width="3" stroke-linecap="round"/>
<line x1="112.8" y1="279.4" x2="117.7" y2="282.9" stroke="#FF8A00" stroke-width="3" stroke-linecap="round"/>
<line x1="117.7" y1="282.9" x2="122.7" y2="285.4" stroke="#FF8A00" stroke-width="3" stroke-linecap="round"/>
<line x1="122.7" y1="285.4" x2="127.6" y2="287.2" stroke="#FF8A00" stroke-width="3" stroke-linecap="round"/>
<line x1="127.6" y1="287.2" x2="132.5" y2="288.4" stroke="#FF8A00" stroke-width="3" stroke-linecap="round"/>
<line x1="132.5" y1="288.4" x2="137.5" y2="290.9" stroke="#FF8A00" stroke-width="3" stroke-linecap="round"/>
<line x1="137.5" y1="290.9" x2="142.4" y2="292.6" stroke="#FF8A00" stroke-width="3" stroke-linecap="round"/>
<line x1="142.4" y1="292.6" x2="147.4" y2="293.4" stroke="#FF8A00" stroke-width="3" stroke-linecap="round"/>
<line x1="147.4" y1="293.4" x2="152.3" y2="293.9" stroke="#FF8A00" stroke-width="3" stroke-linecap="round"/>
<line x1="152.3" y1="293.9" x2="157.3" y2="296.2" stroke="#FF3B30" stroke-width="3" stroke-linecap="round"/>
<line x1="157.3" y1="296.2" x2="162.2" y2="297.9" stroke="#FF3B30" stroke-width="3" stroke-linecap="round"/>
<line x1="162.2" y1="297.9" x2="167.1" y2="299.6" stroke="#FF3B30" stroke-width="3" stroke-linecap="round"/>
<line x1="167.1" y1="299.6" x2="172.1" y2="300.8" stroke="#FF3B30" stroke-width="3" stroke-linecap="round"/>
<line x1="172.1" y1="300.8" x2="177.0" y2="303.9" stroke="#FF3B30" stroke-width="3" stroke-linecap="round"/>
<line x1="177.0" y1="303.9" x2="182.0" y2="306.2" stroke="#FF3B30" stroke-width="3" stroke-linecap="round"/>
<line x1="182.0" y1="306.2" x2="186.9" y2="308.7" stroke="#FF3B30" stroke-width="3" stroke-linecap="round"/>
<line x1="186.9" y1="308.7" x2="191.9" y2="310.5" stroke="#FF3B30" stroke-width="3" stroke-linecap="round"/>
<line x1="191.9" y1="310.5" x2="196.8" y2="312.2" stroke="#FF3B30" stroke-width="3" stroke-linecap="round"/>
<line x1="196.8" y1="312.2" x2="201.8" y2="313.5" stroke="#FF3B30" stroke-width="3" stroke-linecap="round"/>
<line x1="201.8" y1="313.5" x2="206.7" y2="314.8" stroke="#FFD600" stroke-width="3" stroke-linecap="round"/>
<line x1="206.7" y1="314.8" x2="211.6" y2="315.7" stroke="#FFD600" stroke-width="3" stroke-linecap="round"/>
<line x1="211.6" y1="315.7" x2="216.6" y2="316.3" stroke="#FFD600" stroke-width="3" stroke-linecap="round"/>
<line x1="216.6" y1="316.3" x2="221.5" y2="316.5" stroke="#FFD600" stroke-width="3" stroke-linecap="round"/>
<line x1="221.5" y1="316.5" x2="226.5" y2="314.6" stroke="#FFD600" stroke-width="3" stroke-linecap="round"/>
<line x1="226.5" y1="314.6" x2="231.4" y2="312.9" stroke="#FFD600" stroke-width="3" stroke-linecap="round"/>
<line x1="231.4" y1="312.9" x2="236.4" y2="311.2" stroke="#FFD600" stroke-width="3" stroke-linecap="round"/>
<line x1="236.4" y1="311.2" x2="241.3" y2="309.9" stroke="#FFD600" stroke-width="3" stroke-linecap="round"/>
<line x1="241.3" y1="309.9" x2="246.2" y2="309.9" stroke="#FFD600" stroke-width="3" stroke-linecap="round"/>
<line x1="246.2" y1="309.9" x2="251.2" y2="310.0" stroke="#00C853" stroke-width="3" stroke-linecap="round"/>
<line x1="251.2" y1="310.0" x2="256.1" y2="310.2" stroke="#00C853" stroke-width="3" stroke-linecap="round"/>
<line x1="256.1" y1="310.2" x2="261.1" y2="310.5" stroke="#00C853" stroke-width="3" stroke-linecap="round"/>
<line x1="261.1" y1="310.5" x2="266.0" y2="310.8" stroke="#00C853" stroke-width="3" stroke-linecap="round"/>
<line x1="266.0" y1="310.8" x2="271.0" y2="311.1" stroke="#00C853" stroke-width="3" stroke-linecap="round"/>
<line x1="271.0" y1="311.1" x2="275.9" y2="312.9" stroke="#00C853" stroke-width="3" stroke-linecap="round"/>
<line x1="275.9" y1="312.9" x2="280.9" y2="314.4" stroke="#00C853" stroke-width="3" stroke-linecap="round"/>
<line x1="280.9" y1="314.4" x2="285.8" y2="316.5" stroke="#00C853" stroke-width="3" stroke-linecap="round"/>
<line x1="285.8" y1="316.5" x2="290.7" y2="318.1" stroke="#00C853" stroke-width="3" stroke-linecap="round"/>
<line x1="290.7" y1="318.1" x2="295.7" y2="319.6" stroke="#00C853" stroke-width="3" stroke-linecap="round"/>
<line x1="295.7" y1="319.6" x2="300.6" y2="320.7" stroke="#00C853" stroke-width="3" stroke-linecap="round"/>
<line x1="300.6" y1="320.7" x2="305.6" y2="321.8" stroke="#00C853" stroke-width="3" stroke-linecap="round"/>
<line x1="305.6" y1="321.8" x2="310.5" y2="322.6" stroke="#00C853" stroke-width="3" stroke-linecap="round"/>
<line x1="310.5" y1="322.6" x2="315.5" y2="323.0" stroke="#00C853" stroke-width="3" stroke-linecap="round"/>
<line x1="315.5" y1="323.0" x2="320.4" y2="323.2" stroke="#00C853" stroke-width="3" stroke-linecap="round"/>
<line x1="320.4" y1="323.2" x2="325.3" y2="321.3" stroke="#00C853" stroke-width="3" stroke-linecap="round"/>
<line x1="325.3" y1="321.3" x2="330.3" y2="319.6" stroke="#00C853" stroke-width="3" stroke-linecap="round"/>
<line x1="330.3" y1="319.6" x2="335.2" y2="316.9" stroke="#00C853" stroke-width="3" stroke-linecap="round"/>
<line x1="335.2" y1="316.9" x2="340.2" y2="314.7" stroke="#00C853" stroke-width="3" stroke-linecap="round"/>
<line x1="340.2" y1="314.7" x2="345.1" y2="311.3" stroke="#00AAFF" stroke-width="3" stroke-linecap="round"/>
<line x1="345.1" y1="311.3" x2="350.1" y2="308.7" stroke="#00AAFF" stroke-width="3" stroke-linecap="round"/>
<line x1="350.1" y1="308.7" x2="355.0" y2="304.9" stroke="#00AAFF" stroke-width="3" stroke-linecap="round"/>
<line x1="355.0" y1="304.9" x2="360.0" y2="302.0" stroke="#00AAFF" stroke-width="3" stroke-linecap="round"/>
<line x1="360.0" y1="302.0" x2="364.9" y2="299.8" stroke="#00AAFF" stroke-width="3" stroke-linecap="round"/>
<line x1="364.9" y1="299.8" x2="369.8" y2="298.3" stroke="#00AAFF" stroke-width="3" stroke-linecap="round"/>
<line x1="369.8" y1="298.3" x2="374.8" y2="298.8" stroke="#00AAFF" stroke-width="3" stroke-linecap="round"/>
<line x1="374.8" y1="298.8" x2="379.7" y2="299.4" stroke="#00AAFF" stroke-width="3" stroke-linecap="round"/>
<line x1="379.7" y1="299.4" x2="384.7" y2="299.9" stroke="#00AAFF" stroke-width="3" stroke-linecap="round"/>
<line x1="384.7" y1="299.9" x2="389.6" y2="300.4" stroke="#00C853" stroke-width="3" stroke-linecap="round"/>
<line x1="389.6" y1="300.4" x2="394.6" y2="300.9" stroke="#00C853" stroke-width="3" stroke-linecap="round"/>
<line x1="394.6" y1="300.9" x2="399.5" y2="301.4" stroke="#00C853" stroke-width="3" stroke-linecap="round"/>
<line x1="399.5" y1="301.4" x2="404.4" y2="302.4" stroke="#FFD600" stroke-width="3" stroke-linecap="round"/>
<line x1="404.4" y1="302.4" x2="409.4" y2="303.2" stroke="#FFD600" stroke-width="3" stroke-linecap="round"/>
<line x1="409.4" y1="303.2" x2="414.3" y2="303.4" stroke="#FFD600" stroke-width="3" stroke-linecap="round"/>
<line x1="414.3" y1="303.4" x2="419.3" y2="303.5" stroke="#FFD600" stroke-width="3" stroke-linecap="round"/>
<line x1="419.3" y1="303.5" x2="424.2" y2="303.4" stroke="#00C853" stroke-width="3" stroke-linecap="round"/>
<line x1="424.2" y1="303.4" x2="429.2" y2="303.3" stroke="#FFD600" stroke-width="3" stroke-linecap="round"/>
<line x1="429.2" y1="303.3" x2="434.1" y2="304.2" stroke="#555555" stroke-width="3" stroke-linecap="round"/>
<line x1="434.1" y1="304.2" x2="439.1" y2="304.9" stroke="#555555" stroke-width="3" stroke-linecap="round"/>
<line x1="439.1" y1="304.9" x2="444.0" y2="306.5" stroke="#555555" stroke-width="3" stroke-linecap="round"/>
<line x1="444.0" y1="306.5" x2="424.0" y2="312.8" stroke="#555" stroke-width="1"/>
<polygon points="444.0,300.8 444.0,324.8 424.0,312.8" fill="#FFD600"/>
</g>
<rect x="0.5" y="0.5" width="447" height="485" fill="none" stroke="#2A2F37" stroke-width="1"/>
</svg>