<svg xmlns="http://www.w3.org/2000/svg" width="390" height="390" viewBox="0 0 390 390">
<defs><clipPath id="glass"><circle cx="195.0" cy="195.0" r="195.0"/></clipPath></defs>
<rect width="390" height="390" fill="#000"/>
<g clip-path="url(#glass)">
<text x="195" y="71" font-family="Roboto, Helvetica Neue, Helvetica, Arial, sans-serif" font-size="53.4" fill="#00AAFF" text-anchor="middle">47.1%</text>
<circle cx="103.2" cy="285.0" r="20" fill="#00AAFF"/>
<polyline points="94.4,290.2 103.2,279.8 112.0,290.2" stroke="#000" stroke-width="6.7" stroke-linecap="round" stroke-linejoin="round" fill="none"/>
<text x="127.2" y="300" font-family="Roboto, Helvetica Neue, Helvetica, Arial, sans-serif" font-size="45.2" fill="#00AAFF">RECOVER</text>
<text x="66" y="335" font-family="Roboto, Helvetica Neue, Helvetica, Arial, sans-serif" font-size="27.4" fill="#00AAFF">+0.113%/s</text>
<text x="324" y="335" font-family="Roboto, Helvetica Neue, Helvetica, Arial, sans-serif" font-size="27.4" fill="#FFF" text-anchor="end">4:10</text>
<text x="96" y="101" font-family="Roboto, Helvetica Neue, Helvetica, Arial, sans-serif" font-size="27.4" fill="#AAA" text-anchor="middle">MIN</text>
<text x="96" y="126" font-family="Roboto, Helvetica Neue, Helvetica, Arial, sans-serif" font-size="27.4" fill="#FFF" text-anchor="middle">39</text>
<text x="195" y="101" font-family="Roboto, Helvetica Neue, Helvetica, Arial, sans-serif" font-size="27.4" fill="#AAA" text-anchor="middle">AVG</text>
<text x="195" y="126" font-family="Roboto, Helvetica Neue, Helvetica, Arial, sans-serif" font-size="27.4" fill="#FFF" text-anchor="middle">55</text>
<text x="294" y="101" font-family="Roboto, Helvetica Neue, Helvetica, Arial, sans-serif" font-size="27.4" fill="#AAA" text-anchor="middle">MAX</text>
<text x="294" y="126" font-family="Roboto, Helvetica Neue, Helvetica, Arial, sans-serif" font-size="27.4" fill="#FFF" text-anchor="middle">74</text>
<line x1="27.0" y1="134.0" x2="363.0" y2="134.0" stroke="#555" stroke-width="1"/>
<line x1="27.0" y1="256.0" x2="363.0" y2="256.0" stroke="#555" stroke-width="1"/>
<line x1="27.0" y1="195.0" x2="363.0" y2="195.0" stroke="#555" stroke-width="1"/>
<polygon shape-rendering="crispEdges" points="27.0,145.7 30.8,149.9 30.8,256.0 27.0,256.0" fill="#562E00"/>
<polygon shape-rendering="crispEdges" points="30.8,149.9 34.6,155.2 34.6,256.0 30.8,256.0" fill="#562E00"/>
<polygon shape-rendering="crispEdges" points="34.6,155.2 38.3,159.2 38.3,256.0 34.6,256.0" fill="#562E00"/>
<polygon shape-rendering="crispEdges" points="38.3,159.2 42.1,164.6 42.1,256.0 38.3,256.0" fill="#562E00"/>
<polygon shape-rendering="crispEdges" points="42.1,164.6 45.9,168.6 45.9,256.0 42.1,256.0" fill="#562E00"/>
<polygon shape-rendering="crispEdges" points="45.9,168.6 49.7,174.7 49.7,256.0 45.9,256.0" fill="#562E00"/>
<polygon shape-rendering="crispEdges" points="49.7,174.7 53.4,179.2 53.4,256.0 49.7,256.0" fill="#562E00"/>
<polygon shape-rendering="crispEdges" points="53.4,179.2 57.2,185.1 57.2,256.0 53.4,256.0" fill="#562E00"/>
<polygon shape-rendering="crispEdges" points="57.2,185.1 61.0,189.5 61.0,256.0 57.2,256.0" fill="#562E00"/>
<polygon shape-rendering="crispEdges" points="61.0,189.5 64.8,194.2 64.8,256.0 61.0,256.0" fill="#562E00"/>
<polygon shape-rendering="crispEdges" points="64.8,194.2 68.5,197.5 68.5,256.0 64.8,256.0" fill="#562E00"/>
<polygon shape-rendering="crispEdges" points="68.5,197.5 72.3,201.4 72.3,256.0 68.5,256.0" fill="#562E00"/>
<polygon shape-rendering="crispEdges" points="72.3,201.4 76.1,204.0 76.1,256.0 72.3,256.0" fill="#562E00"/>
<polygon shape-rendering="crispEdges" points="76.1,204.0 79.9,206.7 79.9,256.0 76.1,256.0" fill="#562E00"/>
<polygon shape-rendering="crispEdges" points="79.9,206.7 83.6,208.4 83.6,256.0 79.9,256.0" fill="#562E00"/>
<polygon shape-rendering="crispEdges" points="83.6,208.4 87.4,210.5 87.4,256.0 83.6,256.0" fill="#562E00"/>
<polygon shape-rendering="crispEdges" points="87.4,210.5 91.2,211.8 91.2,256.0 87.4,256.0" fill="#562E00"/>
<polygon shape-rendering="crispEdges" points="91.2,211.8 95.0,212.5 95.0,256.0 91.2,256.0" fill="#562E00"/>
<polygon shape-rendering="crispEdges" points="95.0,212.5 98.7,212.7 98.7,256.0 95.0,256.0" fill="#562E00"/>
<polygon shape-rendering="crispEdges" points="98.7,212.7 102.5,214.7 102.5,256.0 98.7,256.0" fill="#562E00"/>
<polygon shape-rendering="crispEdges" points="102.5,214.7 106.3,216.0 106.3,256.0 102.5,256.0" fill="#562E00"/>
<polygon shape-rendering="crispEdges" points="106.3,216.0 110.1,217.4 110.1,256.0 106.3,256.0" fill="#562E00"/>
<polygon shape-rendering="crispEdges" points="110.1,217.4 113.8,218.3 113.8,256.0 110.1,256.0" fill="#562E00"/>
<polygon shape-rendering="crispEdges" points="113.8,218.3 117.6,220.4 117.6,256.0 113.8,256.0" fill="#562E00"/>
<polygon shape-rendering="crispEdges" points="117.6,220.4 121.4,221.8 121.4,256.0 117.6,256.0" fill="#562E00"/>
<polygon shape-rendering="crispEdges" points="121.4,221.8 125.2,223.0 125.2,256.0 121.4,256.0" fill="#562E00"/>
<polygon shape-rendering="crispEdges" points="125.2,223.0 128.9,223.7 128.9,256.0 125.2,256.0" fill="#562E00"/>
<polygon shape-rendering="crispEdges" points="128.9,223.7 132.7,225.1 132.7,256.0 128.9,256.0" fill="#562E00"/>
<polygon shape-rendering="crispEdges" points="132.7,225.1 136.5,226.1 136.5,256.0 132.7,256.0" fill="#562E00"/>
<polygon shape-rendering="crispEdges" points="136.5,226.1 140.3,226.6 140.3,256.0 136.5,256.0" fill="#562E00"/>
<polygon shape-rendering="crispEdges" points="140.3,226.6 144.0,226.9 144.0,256.0 140.3,256.0" fill="#562E00"/>
<polygon shape-rendering="crispEdges" points="144.0,226.9 147.8,228.3 147.8,256.0 144.0,256.0" fill="#561410"/>
<polygon shape-rendering="crispEdges" points="147.8,228.3 151.6,229.3 151.6,256.0 147.8,256.0" fill="#561410"/>
<polygon shape-rendering="crispEdges" points="151.6,229.3 155.4,230.3 155.4,256.0 151.6,256.0" fill="#561410"/>
<polygon shape-rendering="crispEdges" points="155.4,230.3 159.1,231.0 159.1,256.0 155.4,256.0" fill="#561410"/>
<polygon shape-rendering="crispEdges" points="159.1,231.0 162.9,232.8 162.9,256.0 159.1,256.0" fill="#561410"/>
<polygon shape-rendering="crispEdges" points="162.9,232.8 166.7,234.2 166.7,256.0 162.9,256.0" fill="#561410"/>
<polygon shape-rendering="crispEdges" points="166.7,234.2 170.5,235.7 170.5,256.0 166.7,256.0" fill="#561410"/>
<polygon shape-rendering="crispEdges" points="170.5,235.7 174.2,236.7 174.2,256.0 170.5,256.0" fill="#561410"/>
<polygon shape-rendering="crispEdges" points="174.2,236.7 178.0,237.8 178.0,256.0 174.2,256.0" fill="#561410"/>
<polygon shape-rendering="crispEdges" points="178.0,237.8 181.8,238.5 181.8,256.0 178.0,256.0" fill="#561410"/>
<polygon shape-rendering="crispEdges" points="181.8,238.5 185.6,239.3 185.6,256.0 181.8,256.0" fill="#564800"/>
<polygon shape-rendering="crispEdges" points="185.6,239.3 189.3,239.8 189.3,256.0 185.6,256.0" fill="#564800"/>
<polygon shape-rendering="crispEdges" points="189.3,239.8 193.1,240.2 193.1,256.0 189.3,256.0" fill="#564800"/>
<polygon shape-rendering="crispEdges" points="193.1,240.2 196.9,240.3 196.9,256.0 193.1,256.0" fill="#564800"/>
<polygon shape-rendering="crispEdges" points="196.9,240.3 200.7,239.2 200.7,256.0 196.9,256.0" fill="#564800"/>
<polygon shape-rendering="crispEdges" points="200.7,239.2 204.4,238.2 204.4,256.0 200.7,256.0" fill="#564800"/>
<polygon shape-rendering="crispEdges" points="204.4,238.2 208.2,237.2 208.2,256.0 204.4,256.0" fill="#564800"/>
<polygon shape-rendering="crispEdges" points="208.2,237.2 212.0,236.4 212.0,256.0 208.2,256.0" fill="#564800"/>
<polygon shape-rendering="crispEdges" points="212.0,236.4 215.8,236.4 215.8,256.0 212.0,256.0" fill="#564800"/>
<polygon shape-rendering="crispEdges" points="215.8,236.4 219.5,236.4 219.5,256.0 215.8,256.0" fill="#00441C"/>
<polygon shape-rendering="crispEdges" points="219.5,236.4 223.3,236.6 223.3,256.0 219.5,256.0" fill="#00441C"/>
<polygon shape-rendering="crispEdges" points="223.3,236.6 227.1,236.7 227.1,256.0 223.3,256.0" fill="#00441C"/>
<polygon shape-rendering="crispEdges" points="227.1,236.7 230.9,236.9 230.9,256.0 227.1,256.0" fill="#00441C"/>
<polygon shape-rendering="crispEdges" points="230.9,236.9 234.6,237.1 234.6,256.0 230.9,256.0" fill="#00441C"/>
<polygon shape-rendering="crispEdges" points="234.6,237.1 238.4,238.2 238.4,256.0 234.6,256.0" fill="#00441C"/>
<polygon shape-rendering="crispEdges" points="238.4,238.2 242.2,239.0 242.2,256.0 238.4,256.0" fill="#00441C"/>
<polygon shape-rendering="crispEdges" points="242.2,239.0 246.0,240.3 246.0,256.0 242.2,256.0" fill="#00441C"/>
<polygon shape-rendering="crispEdges" points="246.0,240.3 249.7,241.3 249.7,256.0 246.0,256.0" fill="#00441C"/>
<polygon shape-rendering="crispEdges" points="249.7,241.3 253.5,242.1 253.5,256.0 249.7,256.0" fill="#00441C"/>
<polygon shape-rendering="crispEdges" points="253.5,242.1 257.3,242.8 257.3,256.0 253.5,256.0" fill="#00441C"/>
<polygon shape-rendering="crispEdges" points="257.3,242.8 261.1,243.4 261.1,256.0 257.3,256.0" fill="#00441C"/>
<polygon shape-rendering="crispEdges" points="261.1,243.4 264.8,243.9 264.8,256.0 261.1,256.0" fill="#00441C"/>
<polygon shape-rendering="crispEdges" points="264.8,243.9 268.6,244.1 268.6,256.0 264.8,256.0" fill="#00441C"/>
<polygon shape-rendering="crispEdges" points="268.6,244.1 272.4,244.3 272.4,256.0 268.6,256.0" fill="#00441C"/>
<polygon shape-rendering="crispEdges" points="272.4,244.3 276.2,243.1 276.2,256.0 272.4,256.0" fill="#00441C"/>
<polygon shape-rendering="crispEdges" points="276.2,243.1 279.9,242.1 279.9,256.0 276.2,256.0" fill="#00441C"/>
<polygon shape-rendering="crispEdges" points="279.9,242.1 283.7,240.5 283.7,256.0 279.9,256.0" fill="#00441C"/>
<polygon shape-rendering="crispEdges" points="283.7,240.5 287.5,239.2 287.5,256.0 283.7,256.0" fill="#003956"/>
<polygon shape-rendering="crispEdges" points="287.5,239.2 291.3,237.2 291.3,256.0 287.5,256.0" fill="#003956"/>
<polygon shape-rendering="crispEdges" points="291.3,237.2 295.0,235.7 295.0,256.0 291.3,256.0" fill="#003956"/>
<polygon shape-rendering="crispEdges" points="295.0,235.7 298.8,233.4 298.8,256.0 295.0,256.0" fill="#003956"/>
<polygon shape-rendering="crispEdges" points="298.8,233.4 302.6,231.7 302.6,256.0 298.8,256.0" fill="#003956"/>
<polygon shape-rendering="crispEdges" points="302.6,231.7 306.4,230.4 306.4,256.0 302.6,256.0" fill="#003956"/>
<polygon shape-rendering="crispEdges" points="306.4,230.4 310.1,229.5 310.1,256.0 306.4,256.0" fill="#003956"/>
<polygon shape-rendering="crispEdges" points="310.1,229.5 313.9,229.8 313.9,256.0 310.1,256.0" fill="#003956"/>
<polygon shape-rendering="crispEdges" points="313.9,229.8 317.7,230.2 317.7,256.0 313.9,256.0" fill="#003956"/>
<polygon shape-rendering="crispEdges" points="317.7,230.2 321.5,230.5 321.5,256.0 317.7,256.0" fill="#003956"/>
<polygon shape-rendering="crispEdges" points="321.5,230.5 325.2,230.8 325.2,256.0 321.5,256.0" fill="#00441C"/>
<polygon shape-rendering="crispEdges" points="325.2,230.8 329.0,231.0 329.0,256.0 325.2,256.0" fill="#00441C"/>
<polygon shape-rendering="crispEdges" points="329.0,231.0 332.8,231.3 332.8,256.0 329.0,256.0" fill="#00441C"/>
<polygon shape-rendering="crispEdges" points="332.8,231.3 336.6,231.9 336.6,256.0 332.8,256.0" fill="#564800"/>
<polygon shape-rendering="crispEdges" points="336.6,231.9 340.3,232.4 340.3,256.0 336.6,256.0" fill="#564800"/>
<polygon shape-rendering="crispEdges" points="340.3,232.4 344.1,232.5 344.1,256.0 340.3,256.0" fill="#00441C"/>
<polygon shape-rendering="crispEdges" points="344.1,232.5 347.9,232.6 347.9,256.0 344.1,256.0" fill="#00441C"/>
<polygon shape-rendering="crispEdges" points="347.9,232.6 351.7,232.5 351.7,256.0 347.9,256.0" fill="#00441C"/>
<polygon shape-rendering="crispEdges" points="351.7,232.5 355.4,232.4 355.4,256.0 351.7,256.0" fill="#1C1C1C"/>
<polygon shape-rendering="crispEdges" points="355.4,232.4 359.2,233.0 359.2,256.0 355.4,256.0" fill="#1C1C1C"/>
<polygon shape-rendering="crispEdges" points="359.2,233.0 363.0,233.4 363.0,256.0 359.2,256.0" fill="#1C1C1C"/>
<line x1="27.0" y1="145.7" x2="30.8" y2="149.9" stroke="#FF8A00" stroke-width="3" stroke-linecap="round"/>
<line x1="30.8" y1="149.9" x2="34.6" y2="155.2" stroke="#FF8A00" stroke-width="3" stroke-linecap="round"/>
<line x1="34.6" y1="155.2" x2="38.3" y2="159.2" stroke="#FF8A00" stroke-width="3" stroke-linecap="round"/>
<line x1="38.3" y1="159.2" x2="42.1" y2="164.6" stroke="#FF8A00" stroke-width="3" stroke-linecap="round"/>
<line x1="42.1" y1="164.6" x2="45.9" y2="168.6" stroke="#FF8A00" stroke-width="3" stroke-linecap="round"/>
<line x1="45.9" y1="168.6" x2="49.7" y2="174.7" stroke="#FF8A00" stroke-width="3" stroke-linecap="round"/>
<line x1="49.7" y1="174.7" x2="53.4" y2="179.2" stroke="#FF8A00" stroke-width="3" stroke-linecap="round"/>
<line x1="53.4" y1="179.2" x2="57.2" y2="185.1" stroke="#FF8A00" stroke-width="3" stroke-linecap="round"/>
<line x1="57.2" y1="185.1" x2="61.0" y2="189.5" stroke="#FF8A00" stroke-width="3" stroke-linecap="round"/>
<line x1="61.0" y1="189.5" x2="64.8" y2="194.2" stroke="#FF8A00" stroke-width="3" stroke-linecap="round"/>
<line x1="64.8" y1="194.2" x2="68.5" y2="197.5" stroke="#FF8A00" stroke-width="3" stroke-linecap="round"/>
<line x1="68.5" y1="197.5" x2="72.3" y2="201.4" stroke="#FF8A00" stroke-width="3" stroke-linecap="round"/>
<line x1="72.3" y1="201.4" x2="76.1" y2="204.0" stroke="#FF8A00" stroke-width="3" stroke-linecap="round"/>
<line x1="76.1" y1="204.0" x2="79.9" y2="206.7" stroke="#FF8A00" stroke-width="3" stroke-linecap="round"/>
<line x1="79.9" y1="206.7" x2="83.6" y2="208.4" stroke="#FF8A00" stroke-width="3" stroke-linecap="round"/>
<line x1="83.6" y1="208.4" x2="87.4" y2="210.5" stroke="#FF8A00" stroke-width="3" stroke-linecap="round"/>
<line x1="87.4" y1="210.5" x2="91.2" y2="211.8" stroke="#FF8A00" stroke-width="3" stroke-linecap="round"/>
<line x1="91.2" y1="211.8" x2="95.0" y2="212.5" stroke="#FF8A00" stroke-width="3" stroke-linecap="round"/>
<line x1="95.0" y1="212.5" x2="98.7" y2="212.7" stroke="#FF8A00" stroke-width="3" stroke-linecap="round"/>
<line x1="98.7" y1="212.7" x2="102.5" y2="214.7" stroke="#FF8A00" stroke-width="3" stroke-linecap="round"/>
<line x1="102.5" y1="214.7" x2="106.3" y2="216.0" stroke="#FF8A00" stroke-width="3" stroke-linecap="round"/>
<line x1="106.3" y1="216.0" x2="110.1" y2="217.4" stroke="#FF8A00" stroke-width="3" stroke-linecap="round"/>
<line x1="110.1" y1="217.4" x2="113.8" y2="218.3" stroke="#FF8A00" stroke-width="3" stroke-linecap="round"/>
<line x1="113.8" y1="218.3" x2="117.6" y2="220.4" stroke="#FF8A00" stroke-width="3" stroke-linecap="round"/>
<line x1="117.6" y1="220.4" x2="121.4" y2="221.8" stroke="#FF8A00" stroke-width="3" stroke-linecap="round"/>
<line x1="121.4" y1="221.8" x2="125.2" y2="223.0" stroke="#FF8A00" stroke-width="3" stroke-linecap="round"/>
<line x1="125.2" y1="223.0" x2="128.9" y2="223.7" stroke="#FF8A00" stroke-width="3" stroke-linecap="round"/>
<line x1="128.9" y1="223.7" x2="132.7" y2="225.1" stroke="#FF8A00" stroke-width="3" stroke-linecap="round"/>
<line x1="132.7" y1="225.1" x2="136.5" y2="226.1" stroke="#FF8A00" stroke-width="3" stroke-linecap="round"/>
<line x1="136.5" y1="226.1" x2="140.3" y2="226.6" stroke="#FF8A00" stroke-width="3" stroke-linecap="round"/>
<line x1="140.3" y1="226.6" x2="144.0" y2="226.9" stroke="#FF8A00" stroke-width="3" stroke-linecap="round"/>
<line x1="144.0" y1="226.9" x2="147.8" y2="228.3" stroke="#FF3B30" stroke-width="3" stroke-linecap="round"/>
<line x1="147.8" y1="228.3" x2="151.6" y2="229.3" stroke="#FF3B30" stroke-width="3" stroke-linecap="round"/>
<line x1="151.6" y1="229.3" x2="155.4" y2="230.3" stroke="#FF3B30" stroke-width="3" stroke-linecap="round"/>
<line x1="155.4" y1="230.3" x2="159.1" y2="231.0" stroke="#FF3B30" stroke-width="3" stroke-linecap="round"/>
<line x1="159.1" y1="231.0" x2="162.9" y2="232.8" stroke="#FF3B30" stroke-width="3" stroke-linecap="round"/>
<line x1="162.9" y1="232.8" x2="166.7" y2="234.2" stroke="#FF3B30" stroke-width="3" stroke-linecap="round"/>
<line x1="166.7" y1="234.2" x2="170.5" y2="235.7" stroke="#FF3B30" stroke-width="3" stroke-linecap="round"/>
<line x1="170.5" y1="235.7" x2="174.2" y2="236.7" stroke="#FF3B30" stroke-width="3" stroke-linecap="round"/>
<line x1="174.2" y1="236.7" x2="178.0" y2="237.8" stroke="#FF3B30" stroke-width="3" stroke-linecap="round"/>
<line x1="178.0" y1="237.8" x2="181.8" y2="238.5" stroke="#FF3B30" stroke-width="3" stroke-linecap="round"/>
<line x1="181.8" y1="238.5" x2="185.6" y2="239.3" stroke="#FFD600" stroke-width="3" stroke-linecap="round"/>
<line x1="185.6" y1="239.3" x2="189.3" y2="239.8" stroke="#FFD600" stroke-width="3" stroke-linecap="round"/>
<line x1="189.3" y1="239.8" x2="193.1" y2="240.2" stroke="#FFD600" stroke-width="3" stroke-linecap="round"/>
<line x1="193.1" y1="240.2" x2="196.9" y2="240.3" stroke="#FFD600" stroke-width="3" stroke-linecap="round"/>
<line x1="196.9" y1="240.3" x2="200.7" y2="239.2" stroke="#FFD600" stroke-width="3" stroke-linecap="round"/>
<line x1="200.7" y1="239.2" x2="204.4" y2="238.2" stroke="#FFD600" stroke-width="3" stroke-linecap="round"/>
<line x1="204.4" y1="238.2" x2="208.2" y2="237.2" stroke="#FFD600" stroke-width="3" stroke-linecap="round"/>
<line x1="208.2" y1="237.2" x2="212.0" y2="236.4" stroke="#FFD600" stroke-width="3" stroke-linecap="round"/>
<line x1="212.0" y1="236.4" x2="215.8" y2="236.4" stroke="#FFD600" stroke-width="3" stroke-linecap="round"/>
<line x1="215.8" y1="236.4" x2="219.5" y2="236.4" stroke="#00C853" stroke-width="3" stroke-linecap="round"/>
<line x1="219.5" y1="236.4" x2="223.3" y2="236.6" stroke="#00C853" stroke-width="3" stroke-linecap="round"/>
<line x1="223.3" y1="236.6" x2="227.1" y2="236.7" stroke="#00C853" stroke-width="3" stroke-linecap="round"/>
<line x1="227.1" y1="236.7" x2="230.9" y2="236.9" stroke="#00C853" stroke-width="3" stroke-linecap="round"/>
<line x1="230.9" y1="236.9" x2="234.6" y2="237.1" stroke="#00C853" stroke-width="3" stroke-linecap="round"/>
<line x1="234.6" y1="237.1" x2="238.4" y2="238.2" stroke="#00C853" stroke-width="3" stroke-linecap="round"/>
<line x1="238.4" y1="238.2" x2="242.2" y2="239.0" stroke="#00C853" stroke-width="3" stroke-linecap="round"/>
<line x1="242.2" y1="239.0" x2="246.0" y2="240.3" stroke="#00C853" stroke-width="3" stroke-linecap="round"/>
<line x1="246.0" y1="240.3" x2="249.7" y2="241.3" stroke="#00C853" stroke-width="3" stroke-linecap="round"/>
<line x1="249.7" y1="241.3" x2="253.5" y2="242.1" stroke="#00C853" stroke-width="3" stroke-linecap="round"/>
<line x1="253.5" y1="242.1" x2="257.3" y2="242.8" stroke="#00C853" stroke-width="3" stroke-linecap="round"/>
<line x1="257.3" y1="242.8" x2="261.1" y2="243.4" stroke="#00C853" stroke-width="3" stroke-linecap="round"/>
<line x1="261.1" y1="243.4" x2="264.8" y2="243.9" stroke="#00C853" stroke-width="3" stroke-linecap="round"/>
<line x1="264.8" y1="243.9" x2="268.6" y2="244.1" stroke="#00C853" stroke-width="3" stroke-linecap="round"/>
<line x1="268.6" y1="244.1" x2="272.4" y2="244.3" stroke="#00C853" stroke-width="3" stroke-linecap="round"/>
<line x1="272.4" y1="244.3" x2="276.2" y2="243.1" stroke="#00C853" stroke-width="3" stroke-linecap="round"/>
<line x1="276.2" y1="243.1" x2="279.9" y2="242.1" stroke="#00C853" stroke-width="3" stroke-linecap="round"/>
<line x1="279.9" y1="242.1" x2="283.7" y2="240.5" stroke="#00C853" stroke-width="3" stroke-linecap="round"/>
<line x1="283.7" y1="240.5" x2="287.5" y2="239.2" stroke="#00AAFF" stroke-width="3" stroke-linecap="round"/>
<line x1="287.5" y1="239.2" x2="291.3" y2="237.2" stroke="#00AAFF" stroke-width="3" stroke-linecap="round"/>
<line x1="291.3" y1="237.2" x2="295.0" y2="235.7" stroke="#00AAFF" stroke-width="3" stroke-linecap="round"/>
<line x1="295.0" y1="235.7" x2="298.8" y2="233.4" stroke="#00AAFF" stroke-width="3" stroke-linecap="round"/>
<line x1="298.8" y1="233.4" x2="302.6" y2="231.7" stroke="#00AAFF" stroke-width="3" stroke-linecap="round"/>
<line x1="302.6" y1="231.7" x2="306.4" y2="230.4" stroke="#00AAFF" stroke-width="3" stroke-linecap="round"/>
<line x1="306.4" y1="230.4" x2="310.1" y2="229.5" stroke="#00AAFF" stroke-width="3" stroke-linecap="round"/>
<line x1="310.1" y1="229.5" x2="313.9" y2="229.8" stroke="#00AAFF" stroke-width="3" stroke-linecap="round"/>
<line x1="313.9" y1="229.8" x2="317.7" y2="230.2" stroke="#00AAFF" stroke-width="3" stroke-linecap="round"/>
<line x1="317.7" y1="230.2" x2="321.5" y2="230.5" stroke="#00AAFF" stroke-width="3" stroke-linecap="round"/>
<line x1="321.5" y1="230.5" x2="325.2" y2="230.8" stroke="#00C853" stroke-width="3" stroke-linecap="round"/>
<line x1="325.2" y1="230.8" x2="329.0" y2="231.0" stroke="#00C853" stroke-width="3" stroke-linecap="round"/>
<line x1="329.0" y1="231.0" x2="332.8" y2="231.3" stroke="#00C853" stroke-width="3" stroke-linecap="round"/>
<line x1="332.8" y1="231.3" x2="336.6" y2="231.9" stroke="#FFD600" stroke-width="3" stroke-linecap="round"/>
<line x1="336.6" y1="231.9" x2="340.3" y2="232.4" stroke="#FFD600" stroke-width="3" stroke-linecap="round"/>
<line x1="340.3" y1="232.4" x2="344.1" y2="232.5" stroke="#00C853" stroke-width="3" stroke-linecap="round"/>
<line x1="344.1" y1="232.5" x2="347.9" y2="232.6" stroke="#00C853" stroke-width="3" stroke-linecap="round"/>
<line x1="347.9" y1="232.6" x2="351.7" y2="232.5" stroke="#00C853" stroke-width="3" stroke-linecap="round"/>
<line x1="351.7" y1="232.5" x2="355.4" y2="232.4" stroke="#555555" stroke-width="3" stroke-linecap="round"/>
<line x1="355.4" y1="232.4" x2="359.2" y2="233.0" stroke="#555555" stroke-width="3" stroke-linecap="round"/>
<line x1="359.2" y1="233.0" x2="363.0" y2="233.4" stroke="#555555" stroke-width="3" stroke-linecap="round"/>
<line x1="363.0" y1="233.4" x2="347.8" y2="235.3" stroke="#555" stroke-width="1"/>
<polygon points="363.0,226.2 363.0,244.5 347.8,235.3" fill="#00C853"/>
</g>
<circle cx="195.0" cy="195.0" r="194.5" fill="none" stroke="#2A2F37" stroke-width="1"/>
</svg>