<svg xmlns="http://www.w3.org/2000/svg" width="240" height="240" viewBox="0 0 240 240">
<defs><clipPath id="glass"><circle cx="120.0" cy="120.0" r="120.0"/></clipPath></defs>
<rect width="240" height="240" fill="#000"/>
<g clip-path="url(#glass)">
<text x="120" y="48" font-family="Roboto, Helvetica Neue, Helvetica, Arial, sans-serif" font-size="35.0" fill="#00AAFF" text-anchor="middle">47.1%</text>
<circle cx="70.3" cy="175.1" r="11" fill="#00AAFF"/>
<polyline points="65.4,178.0 70.3,172.3 75.1,178.0" stroke="#000" stroke-width="3.7" stroke-linecap="round" stroke-linejoin="round" fill="none"/>
<text x="85.3" y="183" font-family="Roboto, Helvetica Neue, Helvetica, Arial, sans-serif" font-size="24.0" fill="#00AAFF">RECOVER</text>
<text x="38" y="202" font-family="Roboto, Helvetica Neue, Helvetica, Arial, sans-serif" font-size="13.0" fill="#00AAFF">+0.113%/s</text>
<text x="202" y="202" font-family="Roboto, Helvetica Neue, Helvetica, Arial, sans-serif" font-size="13.0" fill="#FFF" text-anchor="end">4:10</text>
<text x="58" y="64" font-family="Roboto, Helvetica Neue, Helvetica, Arial, sans-serif" font-size="13.0" fill="#AAA" text-anchor="middle">MIN</text>
<text x="58" y="76" font-family="Roboto, Helvetica Neue, Helvetica, Arial, sans-serif" font-size="13.0" fill="#FFF" text-anchor="middle">39</text>
<text x="120" y="64" font-family="Roboto, Helvetica Neue, Helvetica, Arial, sans-serif" font-size="13.0" fill="#AAA" text-anchor="middle">AVG</text>
<text x="120" y="76" font-family="Roboto, Helvetica Neue, Helvetica, Arial, sans-serif" font-size="13.0" fill="#FFF" text-anchor="middle">55</text>
<text x="182" y="64" font-family="Roboto, Helvetica Neue, Helvetica, Arial, sans-serif" font-size="13.0" fill="#AAA" text-anchor="middle">MAX</text>
<text x="182" y="76" font-family="Roboto, Helvetica Neue, Helvetica, Arial, sans-serif" font-size="13.0" fill="#FFF" text-anchor="middle">74</text>
<line x1="23.0" y1="84.0" x2="217.0" y2="84.0" stroke="#555" stroke-width="1"/>
<line x1="23.0" y1="156.0" x2="217.0" y2="156.0" stroke="#555" stroke-width="1"/>
<line x1="23.0" y1="120.0" x2="217.0" y2="120.0" stroke="#555" stroke-width="1"/>
<polygon shape-rendering="crispEdges" points="23.0,90.9 25.2,93.4 25.2,156.0 23.0,156.0" fill="#562E00"/>
<polygon shape-rendering="crispEdges" points="25.2,93.4 27.4,96.5 27.4,156.0 25.2,156.0" fill="#562E00"/>
<polygon shape-rendering="crispEdges" points="27.4,96.5 29.5,98.9 29.5,156.0 27.4,156.0" fill="#562E00"/>
<polygon shape-rendering="crispEdges" points="29.5,98.9 31.7,102.1 31.7,156.0 29.5,156.0" fill="#562E00"/>
<polygon shape-rendering="crispEdges" points="31.7,102.1 33.9,104.4 33.9,156.0 31.7,156.0" fill="#562E00"/>
<polygon shape-rendering="crispEdges" points="33.9,104.4 36.1,108.0 36.1,156.0 33.9,156.0" fill="#562E00"/>
<polygon shape-rendering="crispEdges" points="36.1,108.0 38.3,110.7 38.3,156.0 36.1,156.0" fill="#562E00"/>
<polygon shape-rendering="crispEdges" points="38.3,110.7 40.4,114.2 40.4,156.0 38.3,156.0" fill="#562E00"/>
<polygon shape-rendering="crispEdges" points="40.4,114.2 42.6,116.7 42.6,156.0 40.4,156.0" fill="#562E00"/>
<polygon shape-rendering="crispEdges" points="42.6,116.7 44.8,119.5 44.8,156.0 42.6,156.0" fill="#562E00"/>
<polygon shape-rendering="crispEdges" points="44.8,119.5 47.0,121.5 47.0,156.0 44.8,156.0" fill="#562E00"/>
<polygon shape-rendering="crispEdges" points="47.0,121.5 49.2,123.8 49.2,156.0 47.0,156.0" fill="#562E00"/>
<polygon shape-rendering="crispEdges" points="49.2,123.8 51.3,125.3 51.3,156.0 49.2,156.0" fill="#562E00"/>
<polygon shape-rendering="crispEdges" points="51.3,125.3 53.5,126.9 53.5,156.0 51.3,156.0" fill="#562E00"/>
<polygon shape-rendering="crispEdges" points="53.5,126.9 55.7,127.9 55.7,156.0 53.5,156.0" fill="#562E00"/>
<polygon shape-rendering="crispEdges" points="55.7,127.9 57.9,129.1 57.9,156.0 55.7,156.0" fill="#562E00"/>
<polygon shape-rendering="crispEdges" points="57.9,129.1 60.1,129.9 60.1,156.0 57.9,156.0" fill="#562E00"/>
<polygon shape-rendering="crispEdges" points="60.1,129.9 62.2,130.3 62.2,156.0 60.1,156.0" fill="#562E00"/>
<polygon shape-rendering="crispEdges" points="62.2,130.3 64.4,130.5 64.4,156.0 62.2,156.0" fill="#562E00"/>
<polygon shape-rendering="crispEdges" points="64.4,130.5 66.6,131.6 66.6,156.0 64.4,156.0" fill="#562E00"/>
<polygon shape-rendering="crispEdges" points="66.6,131.6 68.8,132.4 68.8,156.0 66.6,156.0" fill="#562E00"/>
<polygon shape-rendering="crispEdges" points="68.8,132.4 71.0,133.2 71.0,156.0 68.8,156.0" fill="#562E00"/>
<polygon shape-rendering="crispEdges" points="71.0,133.2 73.1,133.8 73.1,156.0 71.0,156.0" fill="#562E00"/>
<polygon shape-rendering="crispEdges" points="73.1,133.8 75.3,135.0 75.3,156.0 73.1,156.0" fill="#562E00"/>
<polygon shape-rendering="crispEdges" points="75.3,135.0 77.5,135.8 77.5,156.0 75.3,156.0" fill="#562E00"/>
<polygon shape-rendering="crispEdges" points="77.5,135.8 79.7,136.5 79.7,156.0 77.5,156.0" fill="#562E00"/>
<polygon shape-rendering="crispEdges" points="79.7,136.5 81.9,136.9 81.9,156.0 79.7,156.0" fill="#562E00"/>
<polygon shape-rendering="crispEdges" points="81.9,136.9 84.0,137.8 84.0,156.0 81.9,156.0" fill="#562E00"/>
<polygon shape-rendering="crispEdges" points="84.0,137.8 86.2,138.4 86.2,156.0 84.0,156.0" fill="#562E00"/>
<polygon shape-rendering="crispEdges" points="86.2,138.4 88.4,138.7 88.4,156.0 86.2,156.0" fill="#562E00"/>
<polygon shape-rendering="crispEdges" points="88.4,138.7 90.6,138.8 90.6,156.0 88.4,156.0" fill="#562E00"/>
<polygon shape-rendering="crispEdges" points="90.6,138.8 92.8,139.6 92.8,156.0 90.6,156.0" fill="#561410"/>
<polygon shape-rendering="crispEdges" points="92.8,139.6 94.9,140.2 94.9,156.0 92.8,156.0" fill="#561410"/>
<polygon shape-rendering="crispEdges" points="94.9,140.2 97.1,140.8 97.1,156.0 94.9,156.0" fill="#561410"/>
<polygon shape-rendering="crispEdges" points="97.1,140.8 99.3,141.2 99.3,156.0 97.1,156.0" fill="#561410"/>
<polygon shape-rendering="crispEdges" points="99.3,141.2 101.5,142.3 101.5,156.0 99.3,156.0" fill="#561410"/>
<polygon shape-rendering="crispEdges" points="101.5,142.3 103.7,143.1 103.7,156.0 101.5,156.0" fill="#561410"/>
<polygon shape-rendering="crispEdges" points="103.7,143.1 105.8,144.0 105.8,156.0 103.7,156.0" fill="#561410"/>
<polygon shape-rendering="crispEdges" points="105.8,144.0 108.0,144.6 108.0,156.0 105.8,156.0" fill="#561410"/>
<polygon shape-rendering="crispEdges" points="108.0,144.6 110.2,145.2 110.2,156.0 108.0,156.0" fill="#561410"/>
<polygon shape-rendering="crispEdges" points="110.2,145.2 112.4,145.7 112.4,156.0 110.2,156.0" fill="#561410"/>
<polygon shape-rendering="crispEdges" points="112.4,145.7 114.6,146.2 114.6,156.0 112.4,156.0" fill="#564800"/>
<polygon shape-rendering="crispEdges" points="114.6,146.2 116.7,146.5 116.7,156.0 114.6,156.0" fill="#564800"/>
<polygon shape-rendering="crispEdges" points="116.7,146.5 118.9,146.7 118.9,156.0 116.7,156.0" fill="#564800"/>
<polygon shape-rendering="crispEdges" points="118.9,146.7 121.1,146.7 121.1,156.0 118.9,156.0" fill="#564800"/>
<polygon shape-rendering="crispEdges" points="121.1,146.7 123.3,146.1 123.3,156.0 121.1,156.0" fill="#564800"/>
<polygon shape-rendering="crispEdges" points="123.3,146.1 125.4,145.5 125.4,156.0 123.3,156.0" fill="#564800"/>
<polygon shape-rendering="crispEdges" points="125.4,145.5 127.6,144.9 127.6,156.0 125.4,156.0" fill="#564800"/>
<polygon shape-rendering="crispEdges" points="127.6,144.9 129.8,144.4 129.8,156.0 127.6,156.0" fill="#564800"/>
<polygon shape-rendering="crispEdges" points="129.8,144.4 132.0,144.4 132.0,156.0 129.8,156.0" fill="#564800"/>
<polygon shape-rendering="crispEdges" points="132.0,144.4 134.2,144.5 134.2,156.0 132.0,156.0" fill="#00441C"/>
<polygon shape-rendering="crispEdges" points="134.2,144.5 136.3,144.5 136.3,156.0 134.2,156.0" fill="#00441C"/>
<polygon shape-rendering="crispEdges" points="136.3,144.5 138.5,144.6 138.5,156.0 136.3,156.0" fill="#00441C"/>
<polygon shape-rendering="crispEdges" points="138.5,144.6 140.7,144.7 140.7,156.0 138.5,156.0" fill="#00441C"/>
<polygon shape-rendering="crispEdges" points="140.7,144.7 142.9,144.9 142.9,156.0 140.7,156.0" fill="#00441C"/>
<polygon shape-rendering="crispEdges" points="142.9,144.9 145.1,145.5 145.1,156.0 142.9,156.0" fill="#00441C"/>
<polygon shape-rendering="crispEdges" points="145.1,145.5 147.2,146.0 147.2,156.0 145.1,156.0" fill="#00441C"/>
<polygon shape-rendering="crispEdges" points="147.2,146.0 149.4,146.7 149.4,156.0 147.2,156.0" fill="#00441C"/>
<polygon shape-rendering="crispEdges" points="149.4,146.7 151.6,147.3 151.6,156.0 149.4,156.0" fill="#00441C"/>
<polygon shape-rendering="crispEdges" points="151.6,147.3 153.8,147.8 153.8,156.0 151.6,156.0" fill="#00441C"/>
<polygon shape-rendering="crispEdges" points="153.8,147.8 156.0,148.2 156.0,156.0 153.8,156.0" fill="#00441C"/>
<polygon shape-rendering="crispEdges" points="156.0,148.2 158.1,148.6 158.1,156.0 156.0,156.0" fill="#00441C"/>
<polygon shape-rendering="crispEdges" points="158.1,148.6 160.3,148.9 160.3,156.0 158.1,156.0" fill="#00441C"/>
<polygon shape-rendering="crispEdges" points="160.3,148.9 162.5,149.0 162.5,156.0 160.3,156.0" fill="#00441C"/>
<polygon shape-rendering="crispEdges" points="162.5,149.0 164.7,149.1 164.7,156.0 162.5,156.0" fill="#00441C"/>
<polygon shape-rendering="crispEdges" points="164.7,149.1 166.9,148.4 166.9,156.0 164.7,156.0" fill="#00441C"/>
<polygon shape-rendering="crispEdges" points="166.9,148.4 169.0,147.8 169.0,156.0 166.9,156.0" fill="#00441C"/>
<polygon shape-rendering="crispEdges" points="169.0,147.8 171.2,146.9 171.2,156.0 169.0,156.0" fill="#00441C"/>
<polygon shape-rendering="crispEdges" points="171.2,146.9 173.4,146.1 173.4,156.0 171.2,156.0" fill="#003956"/>
<polygon shape-rendering="crispEdges" points="173.4,146.1 175.6,144.9 175.6,156.0 173.4,156.0" fill="#003956"/>
<polygon shape-rendering="crispEdges" points="175.6,144.9 177.8,144.0 177.8,156.0 175.6,156.0" fill="#003956"/>
<polygon shape-rendering="crispEdges" points="177.8,144.0 179.9,142.7 179.9,156.0 177.8,156.0" fill="#003956"/>
<polygon shape-rendering="crispEdges" points="179.9,142.7 182.1,141.7 182.1,156.0 179.9,156.0" fill="#003956"/>
<polygon shape-rendering="crispEdges" points="182.1,141.7 184.3,140.9 184.3,156.0 182.1,156.0" fill="#003956"/>
<polygon shape-rendering="crispEdges" points="184.3,140.9 186.5,140.4 186.5,156.0 184.3,156.0" fill="#003956"/>
<polygon shape-rendering="crispEdges" points="186.5,140.4 188.7,140.5 188.7,156.0 186.5,156.0" fill="#003956"/>
<polygon shape-rendering="crispEdges" points="188.7,140.5 190.8,140.8 190.8,156.0 188.7,156.0" fill="#003956"/>
<polygon shape-rendering="crispEdges" points="190.8,140.8 193.0,140.9 193.0,156.0 190.8,156.0" fill="#003956"/>
<polygon shape-rendering="crispEdges" points="193.0,140.9 195.2,141.1 195.2,156.0 193.0,156.0" fill="#00441C"/>
<polygon shape-rendering="crispEdges" points="195.2,141.1 197.4,141.3 197.4,156.0 195.2,156.0" fill="#00441C"/>
<polygon shape-rendering="crispEdges" points="197.4,141.3 199.6,141.4 199.6,156.0 197.4,156.0" fill="#00441C"/>
<polygon shape-rendering="crispEdges" points="199.6,141.4 201.7,141.8 201.7,156.0 199.6,156.0" fill="#564800"/>
<polygon shape-rendering="crispEdges" points="201.7,141.8 203.9,142.1 203.9,156.0 201.7,156.0" fill="#564800"/>
<polygon shape-rendering="crispEdges" points="203.9,142.1 206.1,142.1 206.1,156.0 203.9,156.0" fill="#00441C"/>
<polygon shape-rendering="crispEdges" points="206.1,142.1 208.3,142.2 208.3,156.0 206.1,156.0" fill="#00441C"/>
<polygon shape-rendering="crispEdges" points="208.3,142.2 210.5,142.1 210.5,156.0 208.3,156.0" fill="#00441C"/>
<polygon shape-rendering="crispEdges" points="210.5,142.1 212.6,142.1 212.6,156.0 210.5,156.0" fill="#1C1C1C"/>
<polygon shape-rendering="crispEdges" points="212.6,142.1 214.8,142.4 214.8,156.0 212.6,156.0" fill="#1C1C1C"/>
<polygon shape-rendering="crispEdges" points="214.8,142.4 217.0,142.7 217.0,156.0 214.8,156.0" fill="#1C1C1C"/>
<line x1="23.0" y1="90.9" x2="25.2" y2="93.4" stroke="#FF8A00" stroke-width="3" stroke-linecap="round"/>
<line x1="25.2" y1="93.4" x2="27.4" y2="96.5" stroke="#FF8A00" stroke-width="3" stroke-linecap="round"/>
<line x1="27.4" y1="96.5" x2="29.5" y2="98.9" stroke="#FF8A00" stroke-width="3" stroke-linecap="round"/>
<line x1="29.5" y1="98.9" x2="31.7" y2="102.1" stroke="#FF8A00" stroke-width="3" stroke-linecap="round"/>
<line x1="31.7" y1="102.1" x2="33.9" y2="104.4" stroke="#FF8A00" stroke-width="3" stroke-linecap="round"/>
<line x1="33.9" y1="104.4" x2="36.1" y2="108.0" stroke="#FF8A00" stroke-width="3" stroke-linecap="round"/>
<line x1="36.1" y1="108.0" x2="38.3" y2="110.7" stroke="#FF8A00" stroke-width="3" stroke-linecap="round"/>
<line x1="38.3" y1="110.7" x2="40.4" y2="114.2" stroke="#FF8A00" stroke-width="3" stroke-linecap="round"/>
<line x1="40.4" y1="114.2" x2="42.6" y2="116.7" stroke="#FF8A00" stroke-width="3" stroke-linecap="round"/>
<line x1="42.6" y1="116.7" x2="44.8" y2="119.5" stroke="#FF8A00" stroke-width="3" stroke-linecap="round"/>
<line x1="44.8" y1="119.5" x2="47.0" y2="121.5" stroke="#FF8A00" stroke-width="3" stroke-linecap="round"/>
<line x1="47.0" y1="121.5" x2="49.2" y2="123.8" stroke="#FF8A00" stroke-width="3" stroke-linecap="round"/>
<line x1="49.2" y1="123.8" x2="51.3" y2="125.3" stroke="#FF8A00" stroke-width="3" stroke-linecap="round"/>
<line x1="51.3" y1="125.3" x2="53.5" y2="126.9" stroke="#FF8A00" stroke-width="3" stroke-linecap="round"/>
<line x1="53.5" y1="126.9" x2="55.7" y2="127.9" stroke="#FF8A00" stroke-width="3" stroke-linecap="round"/>
<line x1="55.7" y1="127.9" x2="57.9" y2="129.1" stroke="#FF8A00" stroke-width="3" stroke-linecap="round"/>
<line x1="57.9" y1="129.1" x2="60.1" y2="129.9" stroke="#FF8A00" stroke-width="3" stroke-linecap="round"/>
<line x1="60.1" y1="129.9" x2="62.2" y2="130.3" stroke="#FF8A00" stroke-width="3" stroke-linecap="round"/>
<line x1="62.2" y1="130.3" x2="64.4" y2="130.5" stroke="#FF8A00" stroke-width="3" stroke-linecap="round"/>
<line x1="64.4" y1="130.5" x2="66.6" y2="131.6" stroke="#FF8A00" stroke-width="3" stroke-linecap="round"/>
<line x1="66.6" y1="131.6" x2="68.8" y2="132.4" stroke="#FF8A00" stroke-width="3" stroke-linecap="round"/>
<line x1="68.8" y1="132.4" x2="71.0" y2="133.2" stroke="#FF8A00" stroke-width="3" stroke-linecap="round"/>
<line x1="71.0" y1="133.2" x2="73.1" y2="133.8" stroke="#FF8A00" stroke-width="3" stroke-linecap="round"/>
<line x1="73.1" y1="133.8" x2="75.3" y2="135.0" stroke="#FF8A00" stroke-width="3" stroke-linecap="round"/>
<line x1="75.3" y1="135.0" x2="77.5" y2="135.8" stroke="#FF8A00" stroke-width="3" stroke-linecap="round"/>
<line x1="77.5" y1="135.8" x2="79.7" y2="136.5" stroke="#FF8A00" stroke-width="3" stroke-linecap="round"/>
<line x1="79.7" y1="136.5" x2="81.9" y2="136.9" stroke="#FF8A00" stroke-width="3" stroke-linecap="round"/>
<line x1="81.9" y1="136.9" x2="84.0" y2="137.8" stroke="#FF8A00" stroke-width="3" stroke-linecap="round"/>
<line x1="84.0" y1="137.8" x2="86.2" y2="138.4" stroke="#FF8A00" stroke-width="3" stroke-linecap="round"/>
<line x1="86.2" y1="138.4" x2="88.4" y2="138.7" stroke="#FF8A00" stroke-width="3" stroke-linecap="round"/>
<line x1="88.4" y1="138.7" x2="90.6" y2="138.8" stroke="#FF8A00" stroke-width="3" stroke-linecap="round"/>
<line x1="90.6" y1="138.8" x2="92.8" y2="139.6" stroke="#FF3B30" stroke-width="3" stroke-linecap="round"/>
<line x1="92.8" y1="139.6" x2="94.9" y2="140.2" stroke="#FF3B30" stroke-width="3" stroke-linecap="round"/>
<line x1="94.9" y1="140.2" x2="97.1" y2="140.8" stroke="#FF3B30" stroke-width="3" stroke-linecap="round"/>
<line x1="97.1" y1="140.8" x2="99.3" y2="141.2" stroke="#FF3B30" stroke-width="3" stroke-linecap="round"/>
<line x1="99.3" y1="141.2" x2="101.5" y2="142.3" stroke="#FF3B30" stroke-width="3" stroke-linecap="round"/>
<line x1="101.5" y1="142.3" x2="103.7" y2="143.1" stroke="#FF3B30" stroke-width="3" stroke-linecap="round"/>
<line x1="103.7" y1="143.1" x2="105.8" y2="144.0" stroke="#FF3B30" stroke-width="3" stroke-linecap="round"/>
<line x1="105.8" y1="144.0" x2="108.0" y2="144.6" stroke="#FF3B30" stroke-width="3" stroke-linecap="round"/>
<line x1="108.0" y1="144.6" x2="110.2" y2="145.2" stroke="#FF3B30" stroke-width="3" stroke-linecap="round"/>
<line x1="110.2" y1="145.2" x2="112.4" y2="145.7" stroke="#FF3B30" stroke-width="3" stroke-linecap="round"/>
<line x1="112.4" y1="145.7" x2="114.6" y2="146.2" stroke="#FFD600" stroke-width="3" stroke-linecap="round"/>
<line x1="114.6" y1="146.2" x2="116.7" y2="146.5" stroke="#FFD600" stroke-width="3" stroke-linecap="round"/>
<line x1="116.7" y1="146.5" x2="118.9" y2="146.7" stroke="#FFD600" stroke-width="3" stroke-linecap="round"/>
<line x1="118.9" y1="146.7" x2="121.1" y2="146.7" stroke="#FFD600" stroke-width="3" stroke-linecap="round"/>
<line x1="121.1" y1="146.7" x2="123.3" y2="146.1" stroke="#FFD600" stroke-width="3" stroke-linecap="round"/>
<line x1="123.3" y1="146.1" x2="125.4" y2="145.5" stroke="#FFD600" stroke-width="3" stroke-linecap="round"/>
<line x1="125.4" y1="145.5" x2="127.6" y2="144.9" stroke="#FFD600" stroke-width="3" stroke-linecap="round"/>
<line x1="127.6" y1="144.9" x2="129.8" y2="144.4" stroke="#FFD600" stroke-width="3" stroke-linecap="round"/>
<line x1="129.8" y1="144.4" x2="132.0" y2="144.4" stroke="#FFD600" stroke-width="3" stroke-linecap="round"/>
<line x1="132.0" y1="144.4" x2="134.2" y2="144.5" stroke="#00C853" stroke-width="3" stroke-linecap="round"/>
<line x1="134.2" y1="144.5" x2="136.3" y2="144.5" stroke="#00C853" stroke-width="3" stroke-linecap="round"/>
<line x1="136.3" y1="144.5" x2="138.5" y2="144.6" stroke="#00C853" stroke-width="3" stroke-linecap="round"/>
<line x1="138.5" y1="144.6" x2="140.7" y2="144.7" stroke="#00C853" stroke-width="3" stroke-linecap="round"/>
<line x1="140.7" y1="144.7" x2="142.9" y2="144.9" stroke="#00C853" stroke-width="3" stroke-linecap="round"/>
<line x1="142.9" y1="144.9" x2="145.1" y2="145.5" stroke="#00C853" stroke-width="3" stroke-linecap="round"/>
<line x1="145.1" y1="145.5" x2="147.2" y2="146.0" stroke="#00C853" stroke-width="3" stroke-linecap="round"/>
<line x1="147.2" y1="146.0" x2="149.4" y2="146.7" stroke="#00C853" stroke-width="3" stroke-linecap="round"/>
<line x1="149.4" y1="146.7" x2="151.6" y2="147.3" stroke="#00C853" stroke-width="3" stroke-linecap="round"/>
<line x1="151.6" y1="147.3" x2="153.8" y2="147.8" stroke="#00C853" stroke-width="3" stroke-linecap="round"/>
<line x1="153.8" y1="147.8" x2="156.0" y2="148.2" stroke="#00C853" stroke-width="3" stroke-linecap="round"/>
<line x1="156.0" y1="148.2" x2="158.1" y2="148.6" stroke="#00C853" stroke-width="3" stroke-linecap="round"/>
<line x1="158.1" y1="148.6" x2="160.3" y2="148.9" stroke="#00C853" stroke-width="3" stroke-linecap="round"/>
<line x1="160.3" y1="148.9" x2="162.5" y2="149.0" stroke="#00C853" stroke-width="3" stroke-linecap="round"/>
<line x1="162.5" y1="149.0" x2="164.7" y2="149.1" stroke="#00C853" stroke-width="3" stroke-linecap="round"/>
<line x1="164.7" y1="149.1" x2="166.9" y2="148.4" stroke="#00C853" stroke-width="3" stroke-linecap="round"/>
<line x1="166.9" y1="148.4" x2="169.0" y2="147.8" stroke="#00C853" stroke-width="3" stroke-linecap="round"/>
<line x1="169.0" y1="147.8" x2="171.2" y2="146.9" stroke="#00C853" stroke-width="3" stroke-linecap="round"/>
<line x1="171.2" y1="146.9" x2="173.4" y2="146.1" stroke="#00AAFF" stroke-width="3" stroke-linecap="round"/>
<line x1="173.4" y1="146.1" x2="175.6" y2="144.9" stroke="#00AAFF" stroke-width="3" stroke-linecap="round"/>
<line x1="175.6" y1="144.9" x2="177.8" y2="144.0" stroke="#00AAFF" stroke-width="3" stroke-linecap="round"/>
<line x1="177.8" y1="144.0" x2="179.9" y2="142.7" stroke="#00AAFF" stroke-width="3" stroke-linecap="round"/>
<line x1="179.9" y1="142.7" x2="182.1" y2="141.7" stroke="#00AAFF" stroke-width="3" stroke-linecap="round"/>
<line x1="182.1" y1="141.7" x2="184.3" y2="140.9" stroke="#00AAFF" stroke-width="3" stroke-linecap="round"/>
<line x1="184.3" y1="140.9" x2="186.5" y2="140.4" stroke="#00AAFF" stroke-width="3" stroke-linecap="round"/>
<line x1="186.5" y1="140.4" x2="188.7" y2="140.5" stroke="#00AAFF" stroke-width="3" stroke-linecap="round"/>
<line x1="188.7" y1="140.5" x2="190.8" y2="140.8" stroke="#00AAFF" stroke-width="3" stroke-linecap="round"/>
<line x1="190.8" y1="140.8" x2="193.0" y2="140.9" stroke="#00AAFF" stroke-width="3" stroke-linecap="round"/>
<line x1="193.0" y1="140.9" x2="195.2" y2="141.1" stroke="#00C853" stroke-width="3" stroke-linecap="round"/>
<line x1="195.2" y1="141.1" x2="197.4" y2="141.3" stroke="#00C853" stroke-width="3" stroke-linecap="round"/>
<line x1="197.4" y1="141.3" x2="199.6" y2="141.4" stroke="#00C853" stroke-width="3" stroke-linecap="round"/>
<line x1="199.6" y1="141.4" x2="201.7" y2="141.8" stroke="#FFD600" stroke-width="3" stroke-linecap="round"/>
<line x1="201.7" y1="141.8" x2="203.9" y2="142.1" stroke="#FFD600" stroke-width="3" stroke-linecap="round"/>
<line x1="203.9" y1="142.1" x2="206.1" y2="142.1" stroke="#00C853" stroke-width="3" stroke-linecap="round"/>
<line x1="206.1" y1="142.1" x2="208.3" y2="142.2" stroke="#00C853" stroke-width="3" stroke-linecap="round"/>
<line x1="208.3" y1="142.2" x2="210.5" y2="142.1" stroke="#00C853" stroke-width="3" stroke-linecap="round"/>
<line x1="210.5" y1="142.1" x2="212.6" y2="142.1" stroke="#555555" stroke-width="3" stroke-linecap="round"/>
<line x1="212.6" y1="142.1" x2="214.8" y2="142.4" stroke="#555555" stroke-width="3" stroke-linecap="round"/>
<line x1="214.8" y1="142.4" x2="217.0" y2="142.7" stroke="#555555" stroke-width="3" stroke-linecap="round"/>
<line x1="217.0" y1="142.7" x2="208.0" y2="143.8" stroke="#555" stroke-width="1"/>
<polygon points="217.0,138.4 217.0,149.2 208.0,143.8" fill="#00C853"/>
</g>
<circle cx="120.0" cy="120.0" r="119.5" fill="none" stroke="#2A2F37" stroke-width="1"/>
</svg>